<svg width="30" height="30" viewBox="0 0 30 30" fill="none" xmlns="http://www.w3.org/2000/svg">
    <g clip-path="url(#clip0_367_12339)">
        <path fill-rule="evenodd" clip-rule="evenodd" d="M9.58 13.32L11.66 15.86C11.71 15.92 11.73 15.99 11.72 16.06L11.28 19.5201C11.26 19.6701 11.36 19.8 11.51 19.8201C11.56 19.8201 11.6 19.8201 11.65 19.8L14.98 18.39C15.05 18.3601 15.12 18.3601 15.19 18.39L18.37 19.7901C18.51 19.8501 18.66 19.7901 18.72 19.6501C18.74 19.6101 18.75 19.5601 18.74 19.5101L18.3 16.05C18.29 15.98 18.31 15.9001 18.36 15.8501L20.44 13.3101C20.53 13.2001 20.52 13.0301 20.4 12.9301C20.37 12.9001 20.33 12.8901 20.29 12.8801L17.08 12.1001C17.01 12.0801 16.95 12.0401 16.91 11.9701L15.24 9.00005C15.17 8.87005 15.01 8.83005 14.88 8.90005C14.84 8.92005 14.8 8.96005 14.78 9.00005L13.11 11.9701C13.07 12.0401 13.01 12.0801 12.94 12.1001L9.73 12.8801C9.59 12.9101 9.5 13.0601 9.53 13.2C9.53 13.24 9.56 13.2801 9.58 13.3101V13.32Z" fill="#FB545C"/>
        <path fill-rule="evenodd" clip-rule="evenodd" d="M20.43 13.32L18.35 15.86C18.3 15.92 18.28 15.99 18.29 16.06L18.73 19.52C18.75 19.67 18.64 19.8 18.5 19.82C18.45 19.82 18.4 19.82 18.36 19.8L15.18 18.4C15.11 18.37 15.04 18.37 14.97 18.4L11.64 19.81C11.5 19.87 11.35 19.81 11.29 19.67C11.27 19.63 11.27 19.58 11.27 19.53L11.71 16.07C11.72 16 11.7 15.92 11.65 15.87L9.56999 13.33C9.47999 13.22 9.48999 13.05 9.60999 12.95C9.63999 12.92 9.67999 12.91 9.71999 12.9L12.93 12.12C13 12.1 13.06 12.06 13.1 11.99L14.77 9.02002C14.84 8.89002 15 8.85002 15.13 8.92002C15.17 8.94002 15.21 8.98002 15.23 9.02002L16.9 11.99C16.94 12.06 17 12.1 17.07 12.12L20.28 12.9C20.42 12.94 20.51 13.08 20.48 13.22C20.48 13.26 20.45 13.29 20.43 13.33V13.32ZM15 5.90002C9.96999 5.90002 5.89999 9.98002 5.89999 15C5.89999 20.02 9.97999 24.1 15 24.1C20.02 24.1 24.1 20.02 24.1 15C24.1 9.98002 20.02 5.90002 15 5.90002Z" fill="#FFEB87"/>
        <path fill-rule="evenodd" clip-rule="evenodd" d="M15 5.90006C20.03 5.90006 24.1 9.98006 24.1 15.0001C24.1 20.0201 20.02 24.1001 15 24.1001C9.98 24.1001 5.9 20.0201 5.9 15.0001C5.9 9.97006 9.98 5.90006 15 5.90006ZM7.24 3.86006H5.68C4.68 3.86006 3.86 4.68006 3.86 5.68006V7.24006C3.86 9.33006 3.11 11.1301 1.63 12.6101L0.529998 13.7101C-0.180002 14.4201 -0.180002 15.5701 0.529998 16.2901L1.63 17.3901C3.11 18.8701 3.86 20.6701 3.86 22.7601V24.3201C3.86 25.3201 4.68 26.1401 5.68 26.1401H7.24C9.33 26.1401 11.13 26.8901 12.61 28.3701L13.71 29.4701C14.42 30.1801 15.57 30.1801 16.29 29.4701L17.39 28.3701C18.87 26.8901 20.67 26.1401 22.76 26.1401H24.32C25.32 26.1401 26.14 25.3201 26.14 24.3201V22.7601C26.14 20.6701 26.89 18.8701 28.37 17.3901L29.47 16.2901C30.18 15.5801 30.18 14.4301 29.47 13.7101L28.37 12.6101C26.89 11.1301 26.14 9.33006 26.14 7.24006V5.68006C26.14 4.68006 25.32 3.86006 24.32 3.86006H22.76C20.67 3.86006 18.87 3.11006 17.39 1.63006L16.29 0.530059C15.58 -0.179941 14.43 -0.179941 13.71 0.530059L12.61 1.63006C11.13 3.11006 9.33 3.86006 7.24 3.86006Z" fill="#FDC72E"/>
    </g>
    <defs>
        <clipPath id="clip0_367_12339">
            <rect width="30" height="30" fill="white"/>
        </clipPath>
    </defs>
</svg>
