<svg width="40" height="40" viewBox="0 0 40 40" fill="none" xmlns="http://www.w3.org/2000/svg">
    <circle cx="20" cy="20" r="20" fill="#FDC72E" fill-opacity="0.2"/>
    <g clip-path="url(#clip0_148_13135)">
        <path d="M26.43 19.14C29.5062 19.14 32 16.6462 32 13.57C32 10.4938 29.5062 8 26.43 8C23.3538 8 20.86 10.4938 20.86 13.57C20.86 16.6462 23.3538 19.14 26.43 19.14Z" fill="#FB545C"/>
        <path d="M29.86 20.86H23C21.8181 20.86 20.86 21.8181 20.86 23V29.86C20.86 31.0419 21.8181 32 23 32H29.86C31.0419 32 32 31.0419 32 29.86V23C32 21.8181 31.0419 20.86 29.86 20.86Z" fill="#FDC72E"/>
        <path d="M17 20.86H10.14C8.95811 20.86 8 21.8181 8 23V29.86C8 31.0419 8.95811 32 10.14 32H17C18.1819 32 19.14 31.0419 19.14 29.86V23C19.14 21.8181 18.1819 20.86 17 20.86Z" fill="#FDC72E"/>
        <path d="M17 8H10.14C8.95811 8 8 8.95811 8 10.14V17C8 18.1819 8.95811 19.14 10.14 19.14H17C18.1819 19.14 19.14 18.1819 19.14 17V10.14C19.14 8.95811 18.1819 8 17 8Z" fill="#FDC72E"/>
    </g>
    <defs>
        <clipPath id="clip0_148_13135">
            <rect width="24" height="24" fill="white" transform="translate(8 8)"/>
        </clipPath>
    </defs>
</svg>
