<svg width="36" height="36" viewBox="0 0 36 36" fill="none" xmlns="http://www.w3.org/2000/svg">
    <circle cx="18" cy="18" r="18" fill="#FF0000" fill-opacity="0.1"/>
    <path d="M24.8747 12.375L11.1247 12.375" stroke="#FF0000" stroke-width="1.5" stroke-linecap="round" stroke-linejoin="round"/>
    <path d="M16.125 16.125V21.125" stroke="#FF0000" stroke-width="1.5" stroke-linecap="round" stroke-linejoin="round"/>
    <path d="M19.875 16.125V21.125" stroke="#FF0000" stroke-width="1.5" stroke-linecap="round" stroke-linejoin="round"/>
    <path d="M23.625 12.375V24.25C23.625 24.4158 23.5592 24.5747 23.4419 24.6919C23.3247 24.8092 23.1658 24.875 23 24.875H13C12.8342 24.875 12.6753 24.8092 12.5581 24.6919C12.4408 24.5747 12.375 24.4158 12.375 24.25V12.375" stroke="#FF0000" stroke-width="1.5" stroke-linecap="round" stroke-linejoin="round"/>
    <path d="M21.125 12.375V11.125C21.125 10.7935 20.9933 10.4755 20.7589 10.2411C20.5245 10.0067 20.2065 9.875 19.875 9.875H16.125C15.7935 9.875 15.4755 10.0067 15.2411 10.2411C15.0067 10.4755 14.875 10.7935 14.875 11.125V12.375" stroke="#FF0000" stroke-width="1.5" stroke-linecap="round" stroke-linejoin="round"/>
</svg>
