<svg width="20" height="20" viewBox="0 0 20 20" fill="none" xmlns="http://www.w3.org/2000/svg">
    <path d="M11.25 10.1245C11.25 9.43416 10.6904 8.87451 10 8.87451C9.30964 8.87451 8.75 9.43416 8.75 10.1245C8.75 10.8149 9.30964 11.3745 10 11.3745C10.6904 11.3745 11.25 10.8149 11.25 10.1245Z" fill="black" stroke="black" stroke-width="0.6"/>
    <path d="M11.25 3.24951C11.25 2.55916 10.6904 1.99951 10 1.99951C9.30964 1.99951 8.75 2.55916 8.75 3.24951C8.75 3.93987 9.30964 4.49951 10 4.49951C10.6904 4.49951 11.25 3.93987 11.25 3.24951Z" fill="black" stroke="black" stroke-width="0.6"/>
    <path d="M11.25 16.3745C11.25 15.6842 10.6904 15.1245 10 15.1245C9.30964 15.1245 8.75 15.6842 8.75 16.3745C8.75 17.0649 9.30964 17.6245 10 17.6245C10.6904 17.6245 11.25 17.0649 11.25 16.3745Z" fill="black" stroke="black" stroke-width="0.6"/>
</svg>
