<svg width="20" height="20" viewBox="0 0 20 20" fill="none" xmlns="http://www.w3.org/2000/svg">
    <g clip-path="url(#clip0_414_18662)">
        <path d="M10 0C15.52 0 20 4.48 20 10C20 15.52 15.52 20 10 20C8.38 20 6.81999 19.61 5.41 18.89L1.58 19.96C0.919995 20.15 0.229995 19.76 0.0399951 19.09C-0.0200049 18.87 -0.0200049 18.64 0.0399951 18.42L1.11 14.6C0.379995 13.19 -4.88292e-06 11.63 -4.88292e-06 10.01C-4.88292e-06 4.48 4.48 0 10 0ZM10 1.5C5.31 1.5 1.5 5.31 1.5 10C1.5 11.47 1.87 12.88 2.57 14.14L2.72 14.41L1.61 18.39L5.6 17.28L5.87 17.43C7.12 18.13 8.54 18.5 10 18.5C14.69 18.5 18.5 14.69 18.5 10C18.5 5.31 14.69 1.5 10 1.5ZM10 13.5C10.55 13.5 11 13.95 11 14.5C11 15.05 10.55 15.5 10 15.5C9.45 15.5 9 15.05 9 14.5C9 13.95 9.45 13.5 10 13.5ZM10 4.75C11.52 4.75 12.75 5.98 12.75 7.5C12.75 8.51 12.45 9.07 11.7 9.86L11.53 10.03C10.91 10.65 10.75 10.92 10.75 11.5C10.75 11.91 10.41 12.25 10 12.25C9.59 12.25 9.25 11.91 9.25 11.5C9.25 10.49 9.55 9.93 10.3 9.14L10.47 8.97C11.09 8.35 11.25 8.08 11.25 7.5C11.25 6.81 10.69 6.25 10 6.25C9.35 6.25 8.82 6.74 8.76 7.37V7.5C8.76 7.91 8.42 8.25 8 8.25C7.58 8.25 7.25 7.91 7.25 7.5C7.25 5.98 8.48 4.75 10 4.75Z" fill="#93B7A7"/>
    </g>
    <defs>
        <clipPath id="clip0_414_18662">
            <rect width="20" height="20" fill="white"/>
        </clipPath>
    </defs>
</svg>
