<svg width="24" height="24" viewBox="0 0 24 24" fill="none" xmlns="http://www.w3.org/2000/svg">
    <path d="M6.82715 6.27734L13.6992 13.1494L13.1494 13.6992L6.27734 6.82715V6.27734H6.82715ZM5.27734 7.24121V11.5H4.5V6.46387L5.27734 7.24121ZM11.5 4.5V5.27734H7.24121L6.46387 4.5H11.5Z" stroke="#D00004"/>
    <path d="M5.77783 15.5556C5.77783 17.2178 5.77783 18.0481 6.13517 18.6667C6.3692 19.0721 6.70581 19.4087 7.11117 19.6427C7.72983 20.0001 8.56005 20.0001 10.2223 20.0001H14.6667C17.1805 20.0001 18.4383 20.0001 19.2187 19.2187C20.0001 18.4383 20.0001 17.1805 20.0001 14.6667V10.2223C20.0001 8.56005 20.0001 7.72983 19.6427 7.11117C19.4087 6.70581 19.0721 6.3692 18.6667 6.13517C18.0481 5.77783 17.2178 5.77783 15.5556 5.77783" stroke="#D00004" stroke-width="2" stroke-linecap="round"/>
</svg>
