<svg width="26" height="24" viewBox="0 0 26 24" fill="none" xmlns="http://www.w3.org/2000/svg">
    <path d="M21.7378 2.33599C21.3558 1.91358 21.3558 1.23054 21.7378 0.812622C22.1197 0.394706 22.7373 0.390212 23.1152 0.812622L25.7156 3.6886C25.8984 3.89082 26 4.16494 26 4.45254C26 4.74014 25.8984 5.01425 25.7156 5.21647L23.1152 8.09245C22.7332 8.51486 22.1156 8.51486 21.7378 8.09245C21.3599 7.67004 21.3558 6.987 21.7378 6.56908L22.6723 5.53552L15.6024 5.52654C15.062 5.52654 14.6273 5.04571 14.6273 4.44804C14.6273 3.85038 15.062 3.36955 15.6024 3.36955H22.6764L21.7378 2.33599ZM4.26629 17.4349L3.33177 18.4685H10.4016C10.942 18.4685 11.3768 18.9493 11.3768 19.547C11.3768 20.1446 10.942 20.6254 10.4016 20.6254H3.32771L4.26223 21.659C4.64416 22.0814 4.64416 22.7645 4.26223 23.1824C3.88029 23.6003 3.2627 23.6048 2.88483 23.1824L0.284419 20.3109C0.101578 20.1087 0 19.8345 0 19.547C0 19.2594 0.101578 18.9852 0.284419 18.783L2.88483 15.907C3.26676 15.4846 3.88436 15.4846 4.26223 15.907C4.6401 16.3294 4.64416 17.0125 4.26223 17.4304L4.26629 17.4349ZM3.90061 3.36955H13.7293C13.579 3.6931 13.4896 4.05709 13.4896 4.44804C13.4896 5.73774 14.4363 6.78478 15.6024 6.78478H20.3726C20.21 7.54871 20.3969 8.38005 20.9333 8.97772C21.7581 9.88994 23.0949 9.88994 23.9197 8.97772L24.7039 8.11043V17.7495C24.7039 19.3357 23.5377 20.6254 22.1035 20.6254H12.2747C12.4251 20.3019 12.5145 19.9379 12.5145 19.547C12.5145 18.2573 11.5677 17.2102 10.4016 17.2102H5.63151C5.79403 16.4463 5.60713 15.6149 5.07079 15.0173C4.24598 14.1051 2.9092 14.1051 2.08439 15.0173L1.3002 15.8846V6.24553C1.3002 4.65925 2.46632 3.36955 3.90061 3.36955ZM6.50102 6.24553H3.90061V9.12152C5.3349 9.12152 6.50102 7.83182 6.50102 6.24553ZM22.1035 14.8735C20.6692 14.8735 19.503 16.1632 19.503 17.7495H22.1035V14.8735ZM13.002 16.3115C14.0365 16.3115 15.0287 15.857 15.7602 15.0479C16.4917 14.2389 16.9026 13.1416 16.9026 11.9975C16.9026 10.8534 16.4917 9.75609 15.7602 8.94706C15.0287 8.13803 14.0365 7.68352 13.002 7.68352C11.9675 7.68352 10.9754 8.13803 10.2439 8.94706C9.51238 9.75609 9.10142 10.8534 9.10142 11.9975C9.10142 13.1416 9.51238 14.2389 10.2439 15.0479C10.9754 15.857 11.9675 16.3115 13.002 16.3115Z" fill="#3C6954"/>
</svg>
