<svg width="24" height="24" viewBox="0 0 24 24" fill="none" xmlns="http://www.w3.org/2000/svg">
    <path d="M11.35 8.6C10.9166 8.6 10.4875 8.69312 10.0871 8.87403C9.68677 9.05495 9.32298 9.32012 9.01655 9.65442C8.71011 9.98871 8.46704 10.3856 8.3012 10.8223C8.13536 11.2591 8.05 11.7272 8.05 12.2C8.05 12.6728 8.13536 13.1409 8.3012 13.5777C8.46704 14.0144 8.71011 14.4113 9.01655 14.7456C9.32298 15.0799 9.68677 15.345 10.0871 15.526C10.4875 15.7069 10.9166 15.8 11.35 15.8C12.2252 15.8 13.0646 15.4207 13.6835 14.7456C14.3023 14.0705 14.65 13.1548 14.65 12.2C14.65 11.2452 14.3023 10.3295 13.6835 9.65442C13.0646 8.97928 12.2252 8.6 11.35 8.6ZM9.7 12.2C9.7 11.7226 9.87384 11.2648 10.1833 10.9272C10.4927 10.5896 10.9124 10.4 11.35 10.4C11.7876 10.4 12.2073 10.5896 12.5167 10.9272C12.8262 11.2648 13 11.7226 13 12.2C13 12.6774 12.8262 13.1352 12.5167 13.4728C12.2073 13.8104 11.7876 14 11.35 14C10.9124 14 10.4927 13.8104 10.1833 13.4728C9.87384 13.1352 9.7 12.6774 9.7 12.2ZM2 7.7C2 6.98392 2.26076 6.29716 2.72491 5.79081C3.18906 5.28446 3.81859 5 4.475 5H18.225C18.55 5 18.8719 5.06984 19.1721 5.20553C19.4724 5.34121 19.7453 5.54009 19.9751 5.79081C20.2049 6.04153 20.3872 6.33918 20.5116 6.66675C20.636 6.99433 20.7 7.34543 20.7 7.7V16.7C20.7 17.0546 20.636 17.4057 20.5116 17.7332C20.3872 18.0608 20.2049 18.3585 19.9751 18.6092C19.7453 18.8599 19.4724 19.0588 19.1721 19.1945C18.8719 19.3302 18.55 19.4 18.225 19.4H4.475C3.81859 19.4 3.18906 19.1155 2.72491 18.6092C2.26076 18.1028 2 17.4161 2 16.7V7.7ZM4.475 6.8C4.2562 6.8 4.04635 6.89482 3.89164 7.0636C3.73692 7.23239 3.65 7.46131 3.65 7.7V8.6H4.475C4.6938 8.6 4.90365 8.50518 5.05836 8.3364C5.21308 8.16761 5.3 7.93869 5.3 7.7V6.8H4.475ZM3.65 14H4.475C5.13141 14 5.76094 14.2845 6.22509 14.7908C6.68924 15.2972 6.95 15.9839 6.95 16.7V17.6H15.75V16.7C15.75 15.9839 16.0108 15.2972 16.4749 14.7908C16.9391 14.2845 17.5686 14 18.225 14H19.05V10.4H18.225C17.5686 10.4 16.9391 10.1155 16.4749 9.60919C16.0108 9.10284 15.75 8.41608 15.75 7.7V6.8H6.95V7.7C6.95 8.05457 6.88598 8.40567 6.7616 8.73324C6.63722 9.06082 6.45491 9.35847 6.22509 9.60919C5.99526 9.85991 5.72242 10.0588 5.42214 10.1945C5.12186 10.3302 4.80002 10.4 4.475 10.4H3.65V14ZM19.05 8.6V7.7C19.05 7.46131 18.9631 7.23239 18.8084 7.0636C18.6536 6.89482 18.4438 6.8 18.225 6.8H17.4V7.7C17.4 8.1968 17.7696 8.6 18.225 8.6H19.05ZM19.05 15.8H18.225C18.0062 15.8 17.7964 15.8948 17.6416 16.0636C17.4869 16.2324 17.4 16.4613 17.4 16.7V17.6H18.225C18.4438 17.6 18.6536 17.5052 18.8084 17.3364C18.9631 17.1676 19.05 16.9387 19.05 16.7V15.8ZM3.65 16.7C3.65 17.1968 4.0196 17.6 4.475 17.6H5.3V16.7C5.3 16.4613 5.21308 16.2324 5.05836 16.0636C4.90365 15.8948 4.6938 15.8 4.475 15.8H3.65V16.7ZM4.6411 21.2C4.93082 21.7474 5.34757 22.202 5.84942 22.518C6.35128 22.8339 6.92056 23.0002 7.5 23H18.775C19.4612 23 20.1406 22.8526 20.7745 22.5661C21.4084 22.2797 21.9844 21.8598 22.4696 21.3305C22.9548 20.8012 23.3397 20.1729 23.6023 19.4813C23.8649 18.7897 24 18.0485 24 17.3V11C24.0002 10.3679 23.8478 9.74685 23.5581 9.19937C23.2685 8.65189 22.8518 8.19726 22.35 7.8812V17.3C22.35 18.3343 21.9734 19.3263 21.3029 20.0577C20.6325 20.7891 19.7231 21.2 18.775 21.2H4.6411Z" fill="#662000"/>
</svg>
