<svg width="24" height="24" viewBox="0 0 24 24" fill="none" xmlns="http://www.w3.org/2000/svg">
    <path d="M17.1729 17.7227L10.3008 10.8506L10.8506 10.3008L17.7227 17.1729L17.7227 17.7227L17.1729 17.7227ZM18.7227 16.7588L18.7227 12.5L19.5 12.5L19.5 17.5361L18.7227 16.7588ZM12.5 19.5L12.5 18.7227L16.7588 18.7227L17.5361 19.5L12.5 19.5Z" stroke="#008402"/>
    <path d="M18.2222 8.44439C18.2222 6.78217 18.2222 5.95194 17.8648 5.33328C17.6308 4.92793 17.2942 4.59132 16.8888 4.35728C16.2702 3.99994 15.4399 3.99994 13.7777 3.99994L9.33328 3.99994C6.8195 3.99994 5.56173 3.99994 4.78128 4.78128C3.99995 5.56172 3.99995 6.8195 3.99995 9.33328L3.99995 13.7777C3.99995 15.4399 3.99995 16.2702 4.35728 16.8888C4.59132 17.2942 4.92793 17.6308 5.33328 17.8648C5.95195 18.2222 6.78217 18.2222 8.44439 18.2222" stroke="#008402" stroke-width="2" stroke-linecap="round"/>
</svg>
