<svg width="33" height="32" viewBox="0 0 33 32" fill="none" xmlns="http://www.w3.org/2000/svg">
    <rect x="32.5" y="31.9975" width="32" height="32" rx="16" transform="rotate(-180 32.5 31.9975)" fill="#3C6954"/>
    <path d="M16.0691 19.9184L16.1735 10.2004L16.951 10.2088L16.8466 19.9268L16.4537 20.3113L16.0691 19.9184ZM17.8307 21.4014L17.842 20.3518L20.6078 17.6448C20.7613 17.4947 21.0073 17.4973 21.1575 17.6507C21.3075 17.8041 21.3048 18.0501 21.1515 18.2003L17.8267 21.4545C17.8275 21.4368 17.8305 21.4192 17.8307 21.4014ZM11.8023 18.0998C11.6522 17.9464 11.6549 17.7004 11.8082 17.5502C11.9616 17.4 12.2076 17.4028 12.3578 17.5561L15.0648 20.322L15.0535 21.3715C15.0534 21.3891 15.0553 21.4066 15.0557 21.424L11.8023 18.0998Z" stroke="white"/>
</svg>
