<svg width="24" height="24" viewBox="0 0 24 24" fill="none" xmlns="http://www.w3.org/2000/svg">
    <path d="M10.8333 2.00038C10.6804 1.99978 10.5271 1.99989 10.3733 2.00069C9.63328 2.00467 8.8814 2.02716 8.1231 2.0597L8.34249 3.17252C9.13217 3.06926 9.99791 2.99237 10.8636 2.95392C11.3326 2.93309 11.7987 2.92209 12.2508 2.92486C13.6073 2.93304 14.838 3.06479 15.6433 3.42564L15.9876 3.58005L15.8338 3.9683C14.7106 6.80635 14.4508 9.54434 14.6268 12.2308C14.7137 9.04258 15.8595 6.20691 17.3637 2.57166C15.3169 2.17826 13.1263 2.00919 10.8333 2.00034V2.00038ZM11.9168 3.73446C11.579 3.73477 11.2346 3.74268 10.8903 3.75797C9.27962 3.8295 7.67456 4.0481 6.62847 4.29871C7.797 6.80568 8.74229 9.31841 9.35271 11.768C9.42864 11.765 9.50464 11.7657 9.58052 11.77C9.73582 11.7788 9.88942 11.8032 10.0395 11.8411C9.41818 9.54341 8.71048 7.42429 7.83075 5.3084L7.63196 4.83033L8.08364 4.73789C9.21828 4.50551 10.3894 4.41557 11.504 4.41517C11.5784 4.41517 11.6524 4.41552 11.7262 4.41624C12.4344 4.42339 13.117 4.46577 13.7494 4.52956L14.1767 4.5727L14.0521 5.04733C13.3293 7.79945 13.1877 10.7551 13.5964 13.5671C13.6032 13.5744 13.61 13.5817 13.6167 13.589C13.7641 13.5293 13.9019 13.4684 14.0305 13.4033C13.7114 10.3905 13.8528 7.28231 15.0442 4.05118C14.3794 3.85525 13.3658 3.75283 12.2521 3.73674C12.1404 3.73514 12.0286 3.73435 11.9168 3.73446ZM17.5191 4.0646C16.3226 6.99522 15.4728 9.34371 15.3335 11.879C16.108 8.89269 17.605 6.21567 19.3109 4.49577C18.7187 4.32492 18.121 4.18109 17.5191 4.0646ZM6.11854 4.89292C5.39345 5.06584 4.68513 5.28533 4 5.58861C4.3334 5.92299 4.93613 6.54505 5.66741 7.37181C6.00398 6.97113 6.34724 6.57527 6.70527 6.21531C6.51564 5.77102 6.32004 5.33017 6.11854 4.89292ZM11.6079 5.2274C11.0815 5.22445 10.5426 5.24188 10.0018 5.2852C9.94504 5.89684 9.63227 6.46906 9.25871 7.03179C9.85514 8.66211 10.3702 10.3257 10.834 12.092C11.5442 12.3343 12.2468 12.6208 12.816 12.9639C12.6046 11.0659 12.6335 9.12104 12.908 7.2191C12.41 6.62409 12.1505 5.96336 12.1298 5.23692C11.9558 5.23156 11.7819 5.22839 11.6079 5.2274ZM18.6431 6.43374C17.6872 7.74357 16.845 9.38408 16.2711 11.1684C17.3248 9.43473 18.6207 8.08243 20 7.12719C19.5506 6.88844 19.0983 6.65726 18.6431 6.43374ZM7.01915 6.96836C6.45508 7.55791 5.89773 8.26554 5.31731 8.93968C6.56531 9.79759 7.62829 10.8136 8.49543 11.9644C8.54927 11.9408 8.60365 11.9197 8.65834 11.9004C8.25258 10.2868 7.69651 8.63555 7.01915 6.96836ZM16.0398 12.5453C15.406 13.4299 14.8094 13.8969 13.9878 14.2695C14.0802 14.6817 13.943 15.1549 13.6271 15.5168C13.4412 15.7297 13.2077 15.9723 12.8662 16.1299C12.9155 16.1637 12.9658 16.1954 13.017 16.225C13.4949 16.5008 14.3391 16.4119 15.1235 15.9993C15.9054 15.588 16.6039 14.8776 16.8628 14.1579C16.9925 13.7533 16.8999 13.5423 16.6727 13.2329C16.511 13.0127 16.2748 12.7908 16.0398 12.5453V12.5453ZM9.46607 12.5715C9.05193 12.5671 8.63133 12.7053 8.28374 13.0078C7.78939 13.438 7.40829 14.2052 7.40489 15.5083V15.5172L7.4045 15.5262C7.29164 18.2702 7.46634 19.5361 7.81246 20.223C8.11796 20.8293 8.62607 21.1195 9.36933 21.6533C9.40473 21.5457 9.44161 21.4134 9.4762 21.2466C9.56421 20.8219 9.63703 20.2387 9.68318 19.5936C9.77551 18.3035 9.76202 16.7545 9.60761 15.6398L9.52602 15.0501L10.0291 15.184C11.2511 15.5091 11.9501 15.5475 12.3559 15.4647C12.7618 15.3819 12.8994 15.2178 13.1375 14.9451C13.3613 14.6889 13.3571 14.5966 13.3097 14.4524C13.2623 14.3082 13.072 14.0704 12.7493 13.843C12.1037 13.3881 11.0067 12.9663 9.98129 12.6517C9.81312 12.6003 9.64003 12.5733 9.46607 12.5715ZM16.775 15.6747C16.388 16.1107 15.9117 16.4687 15.4115 16.7318C14.6005 17.1584 13.7084 17.3535 12.9683 17.0694C12.707 17.1819 12.5553 17.3112 12.4787 17.4181C12.3736 17.5649 12.3671 17.6729 12.4027 17.8276C12.4383 17.9823 12.5443 18.1659 12.6755 18.2981C12.8066 18.4302 12.9625 18.4989 13.0218 18.5021C14.8304 18.6015 15.6132 18.0011 16.5884 17.3048C16.8728 17.1018 16.9816 16.6904 16.9544 16.2797C16.9407 16.0743 16.8891 15.8813 16.8294 15.7598C16.8146 15.7288 16.7963 15.7001 16.775 15.6747ZM10.3517 16.0813C10.4571 17.2019 10.4588 18.5094 10.3765 19.66C10.3283 20.3338 10.2538 20.9465 10.1527 21.4341C10.1088 21.6463 10.0605 21.8344 10.002 22L15.672 21.711C15.608 21.4361 15.5428 21.1601 15.4776 20.8839C15.2597 20.9677 15.037 21.0338 14.8112 21.0816L14.8129 21.1143L14.4915 21.1374C14.2936 21.1649 14.0875 21.18 13.8737 21.1818L10.6324 21.4147L10.7288 20.8958C11.036 19.2415 11.0643 17.7849 10.8748 16.1914C10.6998 16.1586 10.5254 16.1219 10.3516 16.0813H10.3517ZM11.5874 16.2907C11.74 17.7182 11.7217 19.0807 11.4944 20.5465L12.239 20.4931C12.1222 20.2938 12.042 20.069 12.0032 19.8324C11.9532 19.5249 11.981 19.1825 12.155 18.8995C12.1627 18.8869 12.171 18.8749 12.1792 18.8628C11.9765 18.6462 11.8071 18.3682 11.7303 18.0347C11.6486 17.6795 11.6996 17.2447 11.9428 16.905C12.0232 16.7928 12.1203 16.6915 12.2343 16.6003C12.1335 16.5073 12.045 16.4087 11.9687 16.306C11.8502 16.307 11.7234 16.3019 11.5874 16.2907ZM16.7151 18.1587C15.8085 18.7958 14.7899 19.4048 12.9888 19.3059C12.93 19.3026 12.8716 19.2934 12.8141 19.2785C12.7665 19.3032 12.7411 19.3346 12.7221 19.3655C12.6849 19.4261 12.6629 19.5354 12.6869 19.6835C12.7352 19.9797 12.9778 20.3044 13.2037 20.3348C14.8033 20.5499 15.9085 19.9447 16.5795 19.2405C16.8887 18.9161 16.8914 18.7086 16.8458 18.4828C16.823 18.37 16.7728 18.2606 16.7151 18.1587ZM16.4568 20.3519C16.3494 20.4298 16.2392 20.5023 16.1265 20.5692C16.1902 20.8397 16.2542 21.1102 16.3173 21.3808L17.0872 21.2211C16.8885 21.025 16.7331 20.8208 16.6083 20.6177C16.5526 20.527 16.5035 20.4389 16.4568 20.3519Z" fill="#662000"/>
</svg>
