<svg width="25" height="26" viewBox="0 0 25 26" fill="none" xmlns="http://www.w3.org/2000/svg">
    <path d="M6.75 7.9975C6.09 7.9975 5.5252 7.75291 5.0556 7.26375C4.586 6.77458 4.3508 6.18583 4.35 5.4975V2.9975C4.35 2.31 4.5852 1.72166 5.0556 1.2325C5.526 0.743331 6.0908 0.498331 6.75 0.497498H18.75C19.41 0.497498 19.9752 0.742498 20.4456 1.2325C20.916 1.7225 21.1508 2.31083 21.15 2.9975V5.4975C21.15 6.185 20.9152 6.77375 20.4456 7.26375C19.976 7.75375 19.4108 7.99833 18.75 7.9975H6.75ZM6.75 5.4975H18.75V2.9975H6.75V5.4975ZM3.15 25.4975C2.49 25.4975 1.9252 25.2529 1.4556 24.7637C0.986 24.2746 0.7508 23.6858 0.75 22.9975V21.7475H24.75V22.9975C24.75 23.685 24.5152 24.2737 24.0456 24.7637C23.576 25.2537 23.0108 25.4983 22.35 25.4975H3.15ZM0.75 20.4975L4.92 10.7162C5.12 10.2579 5.42 9.89875 5.82 9.63875C6.22 9.37875 6.65 9.24833 7.11 9.2475H18.39C18.85 9.2475 19.28 9.37791 19.68 9.63875C20.08 9.89958 20.38 10.2587 20.58 10.7162L24.75 20.4975H0.75ZM8.55 17.9975H9.75C9.91 17.9975 10.05 17.935 10.17 17.81C10.29 17.685 10.35 17.5392 10.35 17.3725C10.35 17.2058 10.29 17.06 10.17 16.935C10.05 16.81 9.91 16.7475 9.75 16.7475H8.55C8.39 16.7475 8.25 16.81 8.13 16.935C8.01 17.06 7.95 17.2058 7.95 17.3725C7.95 17.5392 8.01 17.685 8.13 17.81C8.25 17.935 8.39 17.9975 8.55 17.9975ZM8.55 15.4975H9.75C9.91 15.4975 10.05 15.435 10.17 15.31C10.29 15.185 10.35 15.0392 10.35 14.8725C10.35 14.7058 10.29 14.56 10.17 14.435C10.05 14.31 9.91 14.2475 9.75 14.2475H8.55C8.39 14.2475 8.25 14.31 8.13 14.435C8.01 14.56 7.95 14.7058 7.95 14.8725C7.95 15.0392 8.01 15.185 8.13 15.31C8.25 15.435 8.39 15.4975 8.55 15.4975ZM8.55 12.9975H9.75C9.91 12.9975 10.05 12.935 10.17 12.81C10.29 12.685 10.35 12.5392 10.35 12.3725C10.35 12.2058 10.29 12.06 10.17 11.935C10.05 11.81 9.91 11.7475 9.75 11.7475H8.55C8.39 11.7475 8.25 11.81 8.13 11.935C8.01 12.06 7.95 12.2058 7.95 12.3725C7.95 12.5392 8.01 12.685 8.13 12.81C8.25 12.935 8.39 12.9975 8.55 12.9975ZM12.15 17.9975H13.35C13.51 17.9975 13.65 17.935 13.77 17.81C13.89 17.685 13.95 17.5392 13.95 17.3725C13.95 17.2058 13.89 17.06 13.77 16.935C13.65 16.81 13.51 16.7475 13.35 16.7475H12.15C11.99 16.7475 11.85 16.81 11.73 16.935C11.61 17.06 11.55 17.2058 11.55 17.3725C11.55 17.5392 11.61 17.685 11.73 17.81C11.85 17.935 11.99 17.9975 12.15 17.9975ZM12.15 15.4975H13.35C13.51 15.4975 13.65 15.435 13.77 15.31C13.89 15.185 13.95 15.0392 13.95 14.8725C13.95 14.7058 13.89 14.56 13.77 14.435C13.65 14.31 13.51 14.2475 13.35 14.2475H12.15C11.99 14.2475 11.85 14.31 11.73 14.435C11.61 14.56 11.55 14.7058 11.55 14.8725C11.55 15.0392 11.61 15.185 11.73 15.31C11.85 15.435 11.99 15.4975 12.15 15.4975ZM12.15 12.9975H13.35C13.51 12.9975 13.65 12.935 13.77 12.81C13.89 12.685 13.95 12.5392 13.95 12.3725C13.95 12.2058 13.89 12.06 13.77 11.935C13.65 11.81 13.51 11.7475 13.35 11.7475H12.15C11.99 11.7475 11.85 11.81 11.73 11.935C11.61 12.06 11.55 12.2058 11.55 12.3725C11.55 12.5392 11.61 12.685 11.73 12.81C11.85 12.935 11.99 12.9975 12.15 12.9975ZM15.75 17.9975H16.95C17.11 17.9975 17.25 17.935 17.37 17.81C17.49 17.685 17.55 17.5392 17.55 17.3725C17.55 17.2058 17.49 17.06 17.37 16.935C17.25 16.81 17.11 16.7475 16.95 16.7475H15.75C15.59 16.7475 15.45 16.81 15.33 16.935C15.21 17.06 15.15 17.2058 15.15 17.3725C15.15 17.5392 15.21 17.685 15.33 17.81C15.45 17.935 15.59 17.9975 15.75 17.9975ZM15.75 15.4975H16.95C17.11 15.4975 17.25 15.435 17.37 15.31C17.49 15.185 17.55 15.0392 17.55 14.8725C17.55 14.7058 17.49 14.56 17.37 14.435C17.25 14.31 17.11 14.2475 16.95 14.2475H15.75C15.59 14.2475 15.45 14.31 15.33 14.435C15.21 14.56 15.15 14.7058 15.15 14.8725C15.15 15.0392 15.21 15.185 15.33 15.31C15.45 15.435 15.59 15.4975 15.75 15.4975ZM15.75 12.9975H16.95C17.11 12.9975 17.25 12.935 17.37 12.81C17.49 12.685 17.55 12.5392 17.55 12.3725C17.55 12.2058 17.49 12.06 17.37 11.935C17.25 11.81 17.11 11.7475 16.95 11.7475H15.75C15.59 11.7475 15.45 11.81 15.33 11.935C15.21 12.06 15.15 12.2058 15.15 12.3725C15.15 12.5392 15.21 12.685 15.33 12.81C15.45 12.935 15.59 12.9975 15.75 12.9975Z" fill="#3C6954"/>
</svg>
