<svg width="25" height="24" viewBox="0 0 25 24" fill="none" xmlns="http://www.w3.org/2000/svg">
    <path d="M0.277338 -0.00250244L0.277237 -0.00173636C12.8922 1.88774 19.0704 8.67997 20.3547 14.1973C20.2489 14.5026 20.1275 14.7614 19.9976 14.9618C19.1239 16.3093 16.8382 17.0086 14.8608 16.4223C15.1631 15.4136 15.3727 14.3878 15.4707 13.4028C10.6469 13.8205 4.73034 13.8329 0.25 12.2464C2.35856 17.1146 5.26912 20.6463 8.58697 23.9975C9.51151 23.887 10.3964 23.4178 11.2064 22.7018C15.5127 24.4723 20.7098 22.5713 22.6645 19.6026C25.0356 16.0019 26.4074 3.38559 14.2023 -0.0024514H11.0398C19.1414 2.80018 20.9305 8.56469 20.7204 12.2058C18.8432 7.42385 13.7631 2.40696 4.93515 -0.0024514H0.277439L0.277338 -0.00250244Z" fill="#3C6954"/>
</svg>
