<svg width="23" height="27" viewBox="0 0 23 27" fill="none" xmlns="http://www.w3.org/2000/svg">
    <path d="M6.625 1.5H3.125C2.59457 1.5 2.08586 1.72476 1.71079 2.12484C1.33571 2.52492 1.125 3.06754 1.125 3.63333V10.0333C1.125 10.3135 1.17673 10.5909 1.27724 10.8497C1.37775 11.1086 1.52507 11.3437 1.71079 11.5418C1.8965 11.7399 2.11698 11.8971 2.35963 12.0043C2.60228 12.1115 2.86236 12.1667 3.125 12.1667H6.625C6.88764 12.1667 7.14772 12.1115 7.39037 12.0043C7.63302 11.8971 7.8535 11.7399 8.03921 11.5418C8.22493 11.3437 8.37225 11.1086 8.47276 10.8497C8.57327 10.5909 8.625 10.3135 8.625 10.0333V3.63333C8.625 3.06754 8.41429 2.52492 8.03921 2.12484C7.66414 1.72476 7.15543 1.5 6.625 1.5ZM6.625 17.5H3.125C2.59457 17.5 2.08586 17.7248 1.71079 18.1248C1.33571 18.5249 1.125 19.0675 1.125 19.6333V23.3667C1.125 23.9325 1.33571 24.4751 1.71079 24.8752C2.08586 25.2752 2.59457 25.5 3.125 25.5H6.625C7.15543 25.5 7.66414 25.2752 8.03921 24.8752C8.41429 24.4751 8.625 23.9325 8.625 23.3667V19.6333C8.625 19.0675 8.41429 18.5249 8.03921 18.1248C7.66414 17.7248 7.15543 17.5 6.625 17.5ZM19.125 1.5H15.625C15.0946 1.5 14.5859 1.72476 14.2108 2.12484C13.8357 2.52492 13.625 3.06754 13.625 3.63333V7.36667C13.625 7.93246 13.8357 8.47508 14.2108 8.87516C14.5859 9.27524 15.0946 9.5 15.625 9.5H19.125C19.6554 9.5 20.1641 9.27524 20.5392 8.87516C20.9143 8.47508 21.125 7.93246 21.125 7.36667V3.63333C21.125 3.06754 20.9143 2.52492 20.5392 2.12484C20.1641 1.72476 19.6554 1.5 19.125 1.5ZM19.125 14.8333H15.625C15.0946 14.8333 14.5859 15.0581 14.2108 15.4582C13.8357 15.8582 13.625 16.4009 13.625 16.9667V23.3667C13.625 23.9325 13.8357 24.4751 14.2108 24.8752C14.5859 25.2752 15.0946 25.5 15.625 25.5H19.125C19.6554 25.5 20.1641 25.2752 20.5392 24.8752C20.9143 24.4751 21.125 23.9325 21.125 23.3667V16.9667C21.125 16.4009 20.9143 15.8582 20.5392 15.4582C20.1641 15.0581 19.6554 14.8333 19.125 14.8333Z" stroke="#3C6954" stroke-width="2" stroke-miterlimit="10" stroke-linejoin="round"/>
</svg>
