<svg width="19" height="22" viewBox="0 0 19 22" fill="none" xmlns="http://www.w3.org/2000/svg">
    <path d="M6.67 3.50147C6.8766 2.91594 7.25974 2.40891 7.7666 2.05026C8.27346 1.69162 8.87909 1.49902 9.5 1.49902C10.1209 1.49902 10.7265 1.69162 11.2334 2.05026C11.7403 2.40891 12.1234 2.91594 12.33 3.50147M18 5.50147H1M16.333 8.00147L15.873 14.9015C15.696 17.5555 15.608 18.8825 14.743 19.6915C13.878 20.5005 12.547 20.5015 9.887 20.5015H9.113C6.453 20.5015 5.122 20.5015 4.257 19.6915C3.392 18.8825 3.303 17.5555 3.127 14.9015L2.667 8.00147M7 10.5015L7.5 15.5015M12 10.5015L11.5 15.5015" stroke="#FF0000" stroke-width="1.5" stroke-linecap="round"/>
</svg>
