<svg width="24" height="24" viewBox="0 0 24 24" fill="none" xmlns="http://www.w3.org/2000/svg">
<path d="M12.574 2L10.1615 5.5923L11.4436 5.75103C11.0458 7.0322 10.965 7.91444 11.0603 9.66811C11.6703 9.57328 12.163 9.53948 12.8113 9.72721C12.3852 8.16072 12.4297 7.6255 12.6008 5.91015L14.0082 6.00697L12.574 2ZM22 2.09397L17.325 3.37089L18.2274 4.47539C16.0913 5.79436 14.7616 6.83737 13.7086 9.7125C14.2781 9.70604 14.9208 9.8367 15.6144 10.0954C15.8615 8.1961 17.07 6.85778 19.0357 5.46401L19.8978 6.51922L22 2.09397ZM2 2.1922L4.84222 6.55001L5.66556 5.32917C7.19947 6.70857 8.17412 8.57484 8.13801 9.89725C8.93909 9.52749 9.42915 9.49215 10.2837 9.73661C9.93405 8.40981 8.40368 5.11359 6.33014 4.24696L7.04502 3.13983L2.00004 2.19215L2 2.1922ZM13.9125 11.3201C13.6847 11.3253 13.472 11.4228 13.1818 11.7281L12.8986 12.0244L12.6047 11.7387C12.286 11.4291 12.0345 11.3437 11.7796 11.3547C11.5247 11.3658 11.225 11.4979 10.8898 11.7653L10.6215 11.9792L10.3667 11.7507C9.98276 11.4083 9.65552 11.3068 9.34209 11.3227C9.11395 11.3344 8.87722 11.4191 8.64101 11.5672L10.4084 14.7006C11.0751 15.1025 12.4376 15.2537 13.3745 14.7883L15.0827 11.6696C14.7587 11.5394 14.4675 11.4059 14.2158 11.3547C14.1247 11.3361 14.0402 11.3226 13.9583 11.3201C13.9431 11.3198 13.9278 11.3198 13.9125 11.3201ZM10.031 15.4102V15.4103C9.25287 15.9521 8.62811 16.8865 8.38612 18.2551C8.15164 19.5816 8.52112 20.4776 9.17491 21.0881C9.8287 21.6987 10.8101 22.0124 11.8066 21.9996C12.8032 21.9869 13.7971 21.6463 14.4653 21.0244C15.1336 20.4024 15.5115 19.518 15.2972 18.2525C15.0755 16.9447 14.5033 16.0351 13.779 15.4846C12.5502 16.1248 11.0137 15.9888 10.0309 15.4102H10.031Z" fill="#662000"/>
</svg>
