<svg width="20" height="20" viewBox="0 0 20 20" fill="none" xmlns="http://www.w3.org/2000/svg">
    <path d="M3.28784 3.75H16.7122C16.8332 3.75 16.9517 3.78517 17.0532 3.85124C17.1546 3.9173 17.2347 4.01142 17.2837 4.12215C17.3327 4.23288 17.3485 4.35546 17.3291 4.47498C17.3097 4.5945 17.2561 4.70583 17.1746 4.79542L12.0375 10.4462C11.9329 10.5613 11.875 10.7112 11.875 10.8666V15.2905C11.875 15.3934 11.8496 15.4947 11.801 15.5854C11.7525 15.6761 11.6823 15.7535 11.5967 15.8105L9.09669 17.4772C9.00256 17.54 8.89317 17.576 8.78018 17.5814C8.66718 17.5869 8.55483 17.5616 8.45509 17.5082C8.35535 17.4548 8.27197 17.3754 8.21383 17.2784C8.1557 17.1813 8.125 17.0703 8.125 16.9572V10.8666C8.125 10.7112 8.06705 10.5613 7.96246 10.4462L2.82538 4.79542C2.74393 4.70583 2.69026 4.5945 2.67089 4.47498C2.65152 4.35546 2.66729 4.23288 2.71627 4.12215C2.76525 4.01142 2.84535 3.9173 2.94682 3.85124C3.04829 3.78517 3.16676 3.75 3.28784 3.75V3.75Z" stroke="black" stroke-width="1.5" stroke-linecap="round" stroke-linejoin="round"/>
</svg>
