<svg width="24" height="24" viewBox="0 0 24 24" fill="none" xmlns="http://www.w3.org/2000/svg">
    <path d="M2 4.5C2 3.83696 2.26339 3.20107 2.73223 2.73223C3.20107 2.26339 3.83696 2 4.5 2H14.8846C15.5477 2 16.1835 2.26339 16.6524 2.73223C17.1212 3.20107 17.3846 3.83696 17.3846 4.5V14.3077H22V18.5385C22 19.4565 21.6353 20.337 20.9861 20.9861C20.337 21.6353 19.4565 22 18.5385 22H5.46154C4.54348 22 3.66303 21.6353 3.01386 20.9861C2.3647 20.337 2 19.4565 2 18.5385V4.5ZM17.3846 20.4615H18.5385C19.0485 20.4615 19.5376 20.2589 19.8983 19.8983C20.2589 19.5376 20.4615 19.0485 20.4615 18.5385V15.8462H17.3846V20.4615ZM4.5 3.53846C3.96923 3.53846 3.53846 3.96923 3.53846 4.5V18.5385C3.53846 19.0485 3.74107 19.5376 4.10172 19.8983C4.46236 20.2589 4.95151 20.4615 5.46154 20.4615H15.8462V4.5C15.8462 3.96923 15.4154 3.53846 14.8846 3.53846H4.5ZM6.61538 6.61538C6.41137 6.61538 6.21572 6.69643 6.07146 6.84069C5.9272 6.98495 5.84615 7.1806 5.84615 7.38462C5.84615 7.58863 5.9272 7.78429 6.07146 7.92854C6.21572 8.0728 6.41137 8.15385 6.61538 8.15385H12.7692C12.9732 8.15385 13.1689 8.0728 13.3132 7.92854C13.4574 7.78429 13.5385 7.58863 13.5385 7.38462C13.5385 7.1806 13.4574 6.98495 13.3132 6.84069C13.1689 6.69643 12.9732 6.61538 12.7692 6.61538H6.61538ZM5.84615 12C5.84615 11.796 5.9272 11.6003 6.07146 11.4561C6.21572 11.3118 6.41137 11.2308 6.61538 11.2308H12.7692C12.9732 11.2308 13.1689 11.3118 13.3132 11.4561C13.4574 11.6003 13.5385 11.796 13.5385 12C13.5385 12.204 13.4574 12.3997 13.3132 12.5439C13.1689 12.6882 12.9732 12.7692 12.7692 12.7692H6.61538C6.41137 12.7692 6.21572 12.6882 6.07146 12.5439C5.9272 12.3997 5.84615 12.204 5.84615 12ZM6.61538 15.8462C6.41137 15.8462 6.21572 15.9272 6.07146 16.0715C5.9272 16.2157 5.84615 16.4114 5.84615 16.6154C5.84615 16.8194 5.9272 17.0151 6.07146 17.1593C6.21572 17.3036 6.41137 17.3846 6.61538 17.3846H9.69231C9.89632 17.3846 10.092 17.3036 10.2362 17.1593C10.3805 17.0151 10.4615 16.8194 10.4615 16.6154C10.4615 16.4114 10.3805 16.2157 10.2362 16.0715C10.092 15.9272 9.89632 15.8462 9.69231 15.8462H6.61538Z" fill="#662000"/>
</svg>
