<svg width="30" height="30" viewBox="0 0 30 30" fill="none" xmlns="http://www.w3.org/2000/svg">
    <path d="M24.6836 20.3992L22.3755 17.1296V12.4952C22.4576 11.263 22.1345 10.0358 21.4435 8.95563C20.7525 7.87542 19.7219 6.98629 18.4708 6.391C18.4876 6.2013 18.4876 6.01078 18.4708 5.82108C18.4574 5.43892 18.3569 5.06281 18.1751 4.71423C17.9934 4.36566 17.7339 4.05146 17.4116 3.78959C17.0892 3.52773 16.7103 3.32334 16.2965 3.1881C15.8828 3.05286 15.4422 2.98943 15 3.00143C14.5578 2.98943 14.1172 3.05286 13.7035 3.1881C13.2897 3.32334 12.9108 3.52773 12.5884 3.78959C12.2661 4.05146 12.0066 4.36566 11.8249 4.71423C11.6431 5.06281 11.5426 5.43892 11.5292 5.82108C11.503 6.01038 11.503 6.2017 11.5292 6.391C10.2781 6.98629 9.24746 7.87542 8.55649 8.95563C7.86552 10.0358 7.5424 11.263 7.62448 12.4952V17.1296L5.31638 20.3992C5.11672 20.6826 5.00768 21.0068 5.00039 21.3385C4.9931 21.6703 5.08782 21.9978 5.27487 22.2875C5.46193 22.5773 5.73462 22.819 6.06509 22.9879C6.39557 23.1568 6.77199 23.2468 7.15592 23.2489H10.2276C10.3079 24.2858 10.8498 25.2556 11.7396 25.9547C12.6294 26.6538 13.7979 27.0278 15 26.9984C16.2021 27.0278 17.3706 26.6538 18.2604 25.9547C19.1502 25.2556 19.6921 24.2858 19.7724 23.2489H22.8441C23.228 23.2468 23.6044 23.1568 23.9349 22.9879C24.2654 22.819 24.5381 22.5773 24.7251 22.2875C24.9122 21.9978 25.0069 21.6703 24.9996 21.3385C24.9923 21.0068 24.8833 20.6826 24.6836 20.3992ZM13.6984 5.82108C13.7293 5.54775 13.8828 5.29576 14.1261 5.11913C14.3695 4.94249 14.6832 4.85528 15 4.8762C15.3168 4.85528 15.6305 4.94249 15.8739 5.11913C16.1172 5.29576 16.2707 5.54775 16.3016 5.82108C15.8681 5.79762 15.4334 5.79762 15 5.82108C14.5666 5.79762 14.1319 5.79762 13.6984 5.82108ZM15 25.1236C14.3729 25.1509 13.757 24.9731 13.2746 24.6258C12.7923 24.2784 12.4789 23.7868 12.3969 23.2489H17.6031C17.5211 23.7868 17.2077 24.2784 16.7254 24.6258C16.243 24.9731 15.6271 25.1509 15 25.1236ZM7.15592 21.3741L9.48138 18.1195L9.79375 17.6546V12.4952C9.78958 11.372 10.1504 10.2704 10.835 9.31563C11.3074 8.75608 11.9391 8.31154 12.6689 8.02511C13.3986 7.73868 14.2016 7.62009 15 7.68084C15.7984 7.62009 16.6014 7.73868 17.3311 8.02511C18.0609 8.31154 18.6926 8.75608 19.165 9.31563C19.8496 10.2704 20.2104 11.372 20.2062 12.4952V17.6546L20.5186 18.1195L22.8441 21.3741H7.15592Z" fill="#333333"/>
</svg>
