<svg width="25" height="27" viewBox="0 0 25 27" fill="none" xmlns="http://www.w3.org/2000/svg">
    <path d="M23.625 8.69828C23.6246 8.27736 23.5114 7.86396 23.2969 7.49955C23.0824 7.13514 22.774 6.83252 22.4028 6.62206L13.8472 1.82157C13.4756 1.61091 13.0541 1.5 12.625 1.5C12.1959 1.5 11.7744 1.61091 11.4028 1.82157L2.84722 6.62206C2.47599 6.83252 2.16764 7.13514 1.95312 7.49955C1.7386 7.86396 1.62544 8.27736 1.625 8.69828V18.2993C1.62544 18.7202 1.7386 19.1336 1.95312 19.498C2.16764 19.8624 2.47599 20.165 2.84722 20.3755L11.4028 25.176C11.7744 25.3866 12.1959 25.4975 12.625 25.4975C13.0541 25.4975 13.4756 25.3866 13.8472 25.176L22.4028 20.3755C22.774 20.165 23.0824 19.8624 23.2969 19.498C23.5114 19.1336 23.6246 18.7202 23.625 18.2993V8.69828Z" stroke="#3C6954" stroke-width="2" stroke-linecap="round" stroke-linejoin="round"/>
    <path d="M1.99121 7.49817L12.6245 13.4988M12.6245 13.4988L23.2579 7.49817M12.6245 13.4988V25.5" stroke="#3C6954" stroke-width="2" stroke-linecap="round" stroke-linejoin="round"/>
</svg>
